<svg width="48" height="48" viewBox="0 0 48 48" fill="none" xmlns="http://www.w3.org/2000/svg">
<rect width="48" height="48" rx="24" fill="#EDF2F7"/>
<path fill-rule="evenodd" clip-rule="evenodd" d="M24.8944 11.2111C24.3314 10.9296 23.6686 10.9296 23.1056 11.2111L10.1056 17.7111C9.428 18.0499 9 18.7425 9 19.5V34.882C9 35.9866 9.89543 36.882 11 36.882H37C38.1046 36.882 39 35.9866 39 34.882V19.5C39 18.7425 38.572 18.0499 37.8944 17.7111L24.8944 11.2111ZM36.1378 19.0689L24 13L11.8621 19.0689L24 25.4647L36.1378 19.0689ZM11 20.6493V34.882H37V20.6493L24.4195 27.2782C24.157 27.4166 23.843 27.4166 23.5805 27.2782L11 20.6493Z" fill="#2C5282"/>
</svg>
